HIERARCHY
ROOT Hips
{
	OFFSET 51.084202 -8.487206 100.565002
	CHANNELS 6 Xposition Yposition Zposition Xrotation Yrotation Zrotation
	JOINT spine
	{
		OFFSET 0.000000 -0.507026 8.817039
		CHANNELS 3 Xrotation Yrotation Zrotation
		JOINT spine1
		{
			OFFSET 0.000000 -0.000002 10.776604
			CHANNELS 3 Xrotation Yrotation Zrotation
			JOINT spine2
			{
				OFFSET 0.000000 -0.000001 10.325897
				CHANNELS 3 Xrotation Yrotation Zrotation
				JOINT Neck
				{
					OFFSET 0.000000 -1.263955 26.511002
					CHANNELS 3 Xrotation Yrotation Zrotation
					JOINT Head
					{
						OFFSET 0.000000 -0.000001 8.009659
						CHANNELS 3 Xrotation Yrotation Zrotation
						End Site
						{
							OFFSET 0.000000 6.393857 19.387894
						}
					}
				}
				JOINT RightShoulder
				{
					OFFSET -4.347950 0.605420 11.151199
					CHANNELS 3 Xrotation Yrotation Zrotation
					JOINT RightArm
					{
						OFFSET 0.000000 -0.000003 14.625793
						CHANNELS 3 Xrotation Yrotation Zrotation
						JOINT RightArmRoll
						{
							OFFSET 0.000000 -0.000001 7.383392
							CHANNELS 3 Xrotation Yrotation Zrotation
							JOINT RightForeArm
							{
								OFFSET 0.000000 -0.000004 21.505203
								CHANNELS 3 Xrotation Yrotation Zrotation
								JOINT RightForeArmRoll
								{
									OFFSET 0.000000 -0.000001 8.285324
									CHANNELS 3 Xrotation Yrotation Zrotation
									JOINT RightHand
									{
										OFFSET 0.000000 -0.000003 16.626801
										CHANNELS 3 Xrotation Yrotation Zrotation
										End Site
										{
											OFFSET 0.000000 0.000000 0.100006
										}
									}
								}
							}
						}
					}
				}
				JOINT LeftShoulder
				{
					OFFSET 4.347950 0.605420 11.151199
					CHANNELS 3 Xrotation Yrotation Zrotation
					JOINT LeftArm
					{
						OFFSET 0.000000 -0.000003 14.625793
						CHANNELS 3 Xrotation Yrotation Zrotation
						JOINT LeftArmRoll
						{
							OFFSET 0.000000 -0.000001 7.383392
							CHANNELS 3 Xrotation Yrotation Zrotation
							JOINT LeftForeArm
							{
								OFFSET 0.000000 -0.000004 21.505203
								CHANNELS 3 Xrotation Yrotation Zrotation
								JOINT LeftForeArmRoll
								{
									OFFSET 0.000000 -0.000001 8.285324
									CHANNELS 3 Xrotation Yrotation Zrotation
									JOINT LeftHand
									{
										OFFSET 0.000000 -0.000003 16.626801
										CHANNELS 3 Xrotation Yrotation Zrotation
										End Site
										{
											OFFSET 0.000000 0.000000 0.100006
										}
									}
								}
							}
						}
					}
				}
			}
		}
	}
	JOINT RightUpLeg
	{
		OFFSET -7.815102 1.202170 -1.433090
		CHANNELS 3 Xrotation Yrotation Zrotation
		JOINT RightUpLegRoll
		{
			OFFSET 0.000000 -0.000003 19.495895
			CHANNELS 3 Xrotation Yrotation Zrotation
			JOINT RightLeg
			{
				OFFSET 0.000000 0.000004 -24.142700
				CHANNELS 3 Xrotation Yrotation Zrotation
				JOINT RightLegRoll
				{
					OFFSET 0.000000 -0.000004 24.221703
					CHANNELS 3 Xrotation Yrotation Zrotation
					JOINT RightFoot
					{
						OFFSET 0.000000 -0.000003 20.160500
						CHANNELS 3 Xrotation Yrotation Zrotation
						JOINT RightToeBase
						{
							OFFSET 0.000000 -0.000003 16.853195
							CHANNELS 3 Xrotation Yrotation Zrotation
							End Site
							{
								OFFSET 0.007145 0.940779 8.161865
							}
						}
					}
				}
			}
		}
	}
	JOINT LeftUpLeg
	{
		OFFSET 7.815102 1.202170 -1.433090
		CHANNELS 3 Xrotation Yrotation Zrotation
		JOINT LeftUpLegRoll
		{
			OFFSET 0.000000 -0.000003 19.496002
			CHANNELS 3 Xrotation Yrotation Zrotation
			JOINT LeftLeg
			{
				OFFSET 0.000000 -0.000004 24.142593
				CHANNELS 3 Xrotation Yrotation Zrotation
				JOINT LeftLegRoll
				{
					OFFSET 0.000000 -0.000004 24.445602
					CHANNELS 3 Xrotation Yrotation Zrotation
					JOINT LeftFoot
					{
						OFFSET 0.000000 -0.000003 19.936600
						CHANNELS 3 Xrotation Yrotation Zrotation
						JOINT LeftToeBase
						{
							OFFSET 0.000000 -0.000003 16.853195
							CHANNELS 3 Xrotation Yrotation Zrotation
							End Site
							{
								OFFSET -0.032013 0.940779 8.161865
							}
						}
					}
				}
			}
		}
	}
}
MOTION
Frames: 13
Frame Time: 0.041667
51.406696 -9.074861 100.599991 -2.415328 0.888405 3.411123 -2.238849 -0.055375 0.000729 -0.474884 -0.114799 -0.000222 1.170182 -0.114874 0.001152 29.719912 3.281451 -0.618459 -9.046098 4.897219 -0.329254 -5.556010 -66.170941 -7.206497 -37.703505 -106.221859 -18.571016 -0.000003 0.000010 -0.000000 4.183694 -12.043467 0.084681 0.000001 0.000003 -3.005469 -5.000218 -7.998710 0.000158 -8.306012 62.565899 10.077026 -36.198374 111.720475 24.761340 0.000000 -0.000004 0.000005 1.262411 9.236036 0.476336 0.000005 -0.000006 2.999989 -5.000218 7.998852 -0.000140 1.446223 -179.563146 -1.198861 -179.999991 0.000005 -1.074002 175.101899 -1.043172 -0.380397 -0.000002 0.000002 0.030560 68.629720 6.893596 2.150922 25.456948 -7.355613 0.000000 0.933660 176.827423 2.148804 -0.000005 -0.000004 -1.118650 -7.849992 1.979242 0.445543 -0.000007 -0.000002 -0.140686 70.372491 -6.861625 -2.102385 25.659641 7.354669 -0.293878 
51.402096 -9.115131 100.602989 -2.423200 0.889628 3.397296 -2.237610 -0.055664 0.001385 -0.472396 -0.115004 0.001089 1.172672 -0.115153 0.002464 29.722511 3.287392 -0.611658 -9.041034 4.904301 -0.322125 -5.545534 -66.176637 -7.195138 -37.695056 -106.220104 -18.576002 -0.000003 0.000010 0.000000 4.188475 -12.053570 0.086014 0.000001 0.000003 -3.005471 -5.000220 -7.998712 0.000158 -8.328194 62.560646 10.102332 -36.198193 111.727510 24.760605 0.000002 -0.000004 0.000005 1.262137 9.233847 0.476323 0.000006 -0.000006 2.999989 -5.000219 7.998852 -0.000141 1.455724 -179.565141 -1.199839 -179.999991 0.000005 -1.074002 175.102131 -1.041185 -0.380222 -0.000003 0.000002 0.030560 68.629297 6.893606 2.150849 25.456955 -7.355613 0.000000 0.953412 176.823434 2.142914 -0.000005 -0.000004 -1.118650 -7.837100 1.982543 0.445729 -0.000006 -0.000002 -0.140917 70.370695 -6.861629 -2.102396 25.658727 7.354672 -0.294337 
51.392696 -9.106130 100.603989 -2.431374 0.890846 3.383245 -2.236319 -0.055969 0.002080 -0.469806 -0.115218 0.002482 1.175262 -0.115447 0.003857 29.725417 3.293399 -0.604869 -9.036224 4.911388 -0.314964 -5.534437 -66.182252 -7.183091 -37.687205 -106.218478 -18.580770 -0.000004 0.000011 0.000001 4.191895 -12.063094 0.087197 0.000004 0.000003 -3.005470 -5.000218 -7.998712 0.000159 -8.350836 62.555059 10.128146 -36.198005 111.734546 24.759842 0.000001 -0.000004 0.000005 1.261866 9.231570 0.476303 0.000005 -0.000006 2.999990 -5.000220 7.998853 -0.000141 1.465522 -179.568132 -1.200851 -179.999991 0.000005 -1.074001 175.102227 -1.039198 -0.381048 -0.000002 0.000002 0.030560 68.628771 6.893606 2.150882 25.456948 -7.355613 0.000001 0.973839 176.820456 2.136862 -0.000005 -0.000004 -1.118660 -7.823749 1.985945 0.445909 -0.000007 -0.000002 -0.141152 70.368878 -6.861599 -2.102501 25.657715 7.354679 -0.294793 
51.389496 -9.137559 100.604996 -2.439764 0.892061 3.369037 -2.234989 -0.056286 0.002805 -0.467145 -0.115439 0.003931 1.177921 -0.115750 0.005307 29.728521 3.299452 -0.598073 -9.031584 4.918476 -0.307789 -5.522939 -66.187982 -7.170590 -37.677615 -106.217720 -18.583285 -0.000003 0.000011 0.000003 4.194382 -12.072135 0.088270 0.000004 0.000002 -3.005470 -5.000219 -7.998712 0.000157 -8.373839 62.549452 10.154378 -36.197609 111.741526 24.758824 0.000001 -0.000004 0.000003 1.261596 9.229221 0.476275 0.000007 -0.000006 2.999991 -5.000220 7.998852 -0.000140 1.475512 -179.571137 -1.201853 -179.999991 0.000005 -1.074001 175.102254 -1.037197 -0.380876 -0.000003 0.000002 0.030559 68.628245 6.893607 2.150816 25.456953 -7.355613 0.000001 0.994744 176.816481 2.130673 -0.000005 -0.000004 -1.118670 -7.810087 1.989428 0.446086 -0.000006 -0.000002 -0.141389 70.366863 -6.861629 -2.102433 25.656709 7.354679 -0.295242 
51.391098 -9.139309 100.608002 -2.448288 0.893277 3.354742 -2.233638 -0.056610 0.003546 -0.464445 -0.115664 0.005413 1.180622 -0.116059 0.006790 29.731725 3.305528 -0.591288 -9.027041 4.925569 -0.300605 -5.511189 -66.193720 -7.157806 -37.668302 -106.217016 -18.585670 -0.000002 0.000010 -0.000001 4.196311 -12.081086 0.089287 0.000001 0.000002 -3.005471 -5.000218 -7.998712 0.000158 -8.397039 62.543714 10.180827 -36.195956 111.749360 24.756430 0.000001 -0.000005 0.000004 1.261312 9.226834 0.476249 0.000005 -0.000006 2.999990 -5.000218 7.998852 -0.000140 1.485622 -179.573146 -1.202820 -179.999991 0.000005 -1.074001 175.102240 -1.035210 -0.380706 -0.000003 0.000002 0.030559 68.627726 6.893607 2.150847 25.456957 -7.355613 0.000000 1.015927 176.812506 2.124395 -0.000005 -0.000004 -1.118690 -7.796244 1.992952 0.446260 -0.000007 -0.000002 -0.141627 70.364944 -6.861597 -2.102445 25.655598 7.354682 -0.295691 
51.389492 -9.113173 100.606003 -2.456828 0.894496 3.340418 -2.232277 -0.056935 0.004290 -0.461734 -0.115890 0.006903 1.183332 -0.116370 0.008280 29.735030 3.311599 -0.584489 -9.022534 4.932664 -0.293410 -5.499385 -66.199457 -7.144960 -37.659033 -106.216326 -18.588099 -0.000002 0.000010 -0.000001 4.198105 -12.089836 0.090286 0.000003 0.000003 -3.005470 -5.000218 -7.998712 0.000159 -8.420232 62.537895 10.207273 -36.195546 111.756341 24.755403 -0.000001 -0.000005 0.000003 1.261033 9.224443 0.476218 0.000007 -0.000006 2.999990 -5.000220 7.998853 -0.000140 1.495773 -179.576137 -1.203822 -179.999991 0.000005 -1.074002 175.102186 -1.033209 -0.380535 -0.000002 0.000002 0.030560 68.627193 6.893609 2.150782 25.456950 -7.355614 0.000001 1.037164 176.809528 2.118120 -0.000005 -0.000005 -1.118700 -7.782363 1.996486 0.446431 -0.000007 -0.000002 -0.141865 70.362935 -6.861628 -2.102374 25.654590 7.354670 -0.296136 
51.385597 -9.128470 100.600983 -2.465323 0.895722 3.326144 -2.230928 -0.057257 0.005026 -0.459044 -0.116114 0.008377 1.186022 -0.116678 0.009754 29.738138 3.317677 -0.577699 -9.017975 4.939760 -0.286230 -5.487698 -66.205181 -7.132238 -37.651705 -106.214817 -18.592779 -0.000003 0.000011 0.000001 4.200168 -12.098785 0.091319 0.000005 0.000002 -3.005470 -5.000220 -7.998712 0.000157 -8.443355 62.532171 10.233639 -36.195368 111.763383 24.754581 0.000001 -0.000005 0.000003 1.260752 9.222065 0.476188 0.000006 -0.000006 2.999990 -5.000220 7.998853 -0.000139 1.505852 -179.579156 -1.204827 -179.999991 0.000005 -1.074001 175.102172 -1.031222 -0.380365 -0.000002 0.000002 0.030560 68.626578 6.893638 2.150825 25.456955 -7.355614 0.000000 1.058279 176.805553 2.111861 -0.000005 -0.000004 -1.118710 -7.768570 2.000000 0.446602 -0.000006 -0.000002 -0.142102 70.360921 -6.861627 -2.102498 25.653482 7.354674 -0.296574 
51.399895 -9.116488 100.602982 -2.473655 0.896956 3.311987 -2.229610 -0.057571 0.005742 -0.456404 -0.116333 0.009810 1.188672 -0.116979 0.011189 29.741246 3.323712 -0.570905 -9.013282 4.946846 -0.279064 -5.476257 -66.210809 -7.119802 -37.642016 -106.214038 -18.595304 -0.000004 0.000011 0.000001 4.202919 -12.108017 0.092430 0.000002 0.000002 -3.005470 -5.000219 -7.998711 0.000158 -8.466216 62.526543 10.259707 -36.194976 111.770356 24.753587 -0.000001 -0.000005 0.000004 1.260470 9.219739 0.476165 0.000007 -0.000006 2.999990 -5.000222 7.998853 -0.000141 1.515791 -179.581150 -1.205807 -179.999991 0.000005 -1.074001 175.102240 -1.029235 -0.380194 -0.000003 0.000002 0.030560 68.626039 6.893639 2.150859 25.456952 -7.355614 0.000001 1.079045 176.801564 2.105689 -0.000005 -0.000004 -1.118730 -7.754998 2.003463 0.446774 -0.000006 -0.000002 -0.142339 70.359008 -6.861628 -2.102415 25.652466 7.354673 -0.297024 
51.406799 -9.124159 100.607994 -2.481738 0.898200 3.298008 -2.228330 -0.057871 0.006426 -0.453844 -0.116543 0.011178 1.191232 -0.117267 0.012557 29.744050 3.329704 -0.564115 -9.008394 4.953945 -0.271916 -5.465323 -66.216505 -7.107941 -37.633973 -106.212365 -18.600070 -0.000001 0.000011 0.000001 4.206756 -12.117737 0.093666 0.000000 0.000003 -3.005471 -5.000220 -7.998710 0.000159 -8.488668 62.521045 10.285315 -36.194801 111.777384 24.752851 -0.000001 -0.000005 0.000006 1.260195 9.217480 0.476150 0.000007 -0.000006 2.999991 -5.000220 7.998853 -0.000140 1.525489 -179.584156 -1.206825 -179.999991 0.000005 -1.074001 175.102377 -1.027235 -0.381017 -0.000002 0.000002 0.030560 68.625615 6.893611 2.150880 25.456955 -7.355613 0.000001 1.099268 176.798586 2.099683 -0.000005 -0.000004 -1.118730 -7.741789 2.006845 0.446947 -0.000007 -0.000002 -0.142572 70.357205 -6.861629 -2.102428 25.651557 7.354675 -0.297493 
51.408295 -9.163328 100.609985 -2.489475 0.899457 3.284274 -2.227113 -0.058153 0.007065 -0.451396 -0.116743 0.012457 1.193672 -0.117538 0.013837 29.746553 3.335627 -0.557333 -9.003215 4.961040 -0.264813 -5.455032 -66.222079 -7.096803 -37.625248 -106.210569 -18.605087 0.000000 0.000010 0.000001 4.212084 -12.127931 0.095058 0.000001 0.000003 -3.005470 -5.000217 -7.998713 0.000159 -8.510570 62.515779 10.310305 -36.194624 111.784420 24.752133 -0.000001 -0.000006 0.000004 1.259937 9.215329 0.476137 0.000009 -0.000006 2.999989 -5.000218 7.998852 -0.000140 1.534877 -179.586150 -1.207821 -179.999991 0.000005 -1.074001 175.102677 -1.026241 -0.380927 -0.000002 0.000002 0.030560 68.625089 6.893611 2.150913 25.456950 -7.355614 0.000001 1.118751 176.794611 2.093847 -0.000005 -0.000004 -1.118740 -7.729064 2.010106 0.447122 -0.000007 -0.000002 -0.142803 70.355491 -6.861599 -2.102529 25.650649 7.354674 -0.297959 
51.408897 -9.157932 100.605003 -2.496786 0.900728 3.270864 -2.225960 -0.058411 0.007647 -0.449089 -0.116929 0.013623 1.195982 -0.117790 0.015003 29.748752 3.341463 -0.550549 -8.997693 4.968131 -0.257745 -5.445553 -66.227638 -7.086589 -37.617776 -106.207802 -18.612489 -0.000002 0.000010 -0.000001 4.219319 -12.138995 0.096671 0.000003 0.000003 -3.005470 -5.000217 -7.998712 0.000158 -8.531764 62.510766 10.334500 -36.195935 111.790649 24.753073 0.000001 -0.000006 0.000004 1.259687 9.213312 0.476134 0.000006 -0.000006 2.999992 -5.000218 7.998852 -0.000140 1.543871 -179.589142 -1.208847 -179.999991 0.000005 -1.074001 175.103142 -1.024255 -0.380748 -0.000002 0.000002 0.030560 68.624666 6.893620 2.150840 25.456955 -7.355614 0.000001 1.137288 176.791633 2.088271 -0.000005 -0.000004 -1.118730 -7.716971 2.013216 0.447301 -0.000006 -0.000002 -0.143029 70.353899 -6.861604 -2.102427 25.649841 7.354679 -0.298426 
51.386898 -9.117352 100.603989 -2.503580 0.902016 3.257838 -2.224892 -0.058641 0.008161 -0.446956 -0.117096 0.014650 1.198122 -0.118016 0.016032 29.750446 3.347196 -0.543768 -8.991751 4.975216 -0.250716 -5.437108 -66.233150 -7.077527 -37.611437 -106.204039 -18.622342 -0.000000 0.000010 0.000000 4.228860 -12.151020 0.098548 0.000005 0.000002 -3.005470 -5.000218 -7.998711 0.000158 -8.552120 62.506094 10.357751 -36.197236 111.796878 24.754067 -0.000002 -0.000004 0.000007 1.259444 9.211441 0.476149 0.000006 -0.000006 2.999990 -5.000221 7.998851 -0.000141 1.552357 -179.591150 -1.209861 -179.999991 0.000005 -1.074001 175.103825 -1.022256 -0.380565 -0.000002 0.000002 0.030561 68.624352 6.893599 2.150858 25.456953 -7.355613 0.000000 1.154656 176.787658 2.082989 -0.000005 -0.000004 -1.118720 -7.705648 2.016153 0.447486 -0.000007 -0.000002 -0.143251 70.352519 -6.861614 -2.102414 25.649134 7.354678 -0.298903 
51.389698 -9.132460 100.606003 -2.509750 0.903323 3.245262 -2.223922 -0.058837 0.008594 -0.445023 -0.117244 0.015515 1.200053 -0.118212 0.016898 29.751638 3.352796 -0.536992 -8.985293 4.982307 -0.243763 -5.429844 -66.238614 -7.069808 -37.605997 -106.199230 -18.634629 -0.000002 0.000011 0.000001 4.241122 -12.164098 0.100729 0.000001 0.000002 -3.005470 -5.000215 -7.998712 0.000157 -8.571478 62.501770 10.379890 -36.198760 111.803162 24.755370 -0.000002 -0.000005 0.000005 1.259216 9.209766 0.476175 0.000006 -0.000005 2.999992 -5.000220 7.998853 -0.000140 1.560268 -179.593144 -1.210898 -179.999991 0.000005 -1.074001 175.104754 -1.021263 -0.380463 -0.000002 0.000002 0.030560 68.624031 6.893613 2.150780 25.456952 -7.355614 0.000001 1.170676 176.784666 2.078069 -0.000005 -0.000004 -1.118700 -7.695216 2.018879 0.447678 -0.000006 -0.000002 -0.143467 70.351256 -6.861623 -2.102395 25.648626 7.354672 -0.299412 
